<svg xmlns="http://www.w3.org/2000/svg" width="1009" height="149" fill="none" viewBox="0 0 1009 149"><path fill="#fff" d="M198.447 40.878c-3.287 1.048.001 12.771 16.736 27.259C293 135.5 391.086 147.588 540.52 136.27c139.306-13.899 337.209-51.085 465.17 12.054.07.036.15.063.23.08 4.87 1.067 1.64-.718-2.37-2.835-102.169-54.055-246.231-46.097-357.102-38.303-81.746 5.746-280.499 19.542-351.621-41.076-3.438-2.93-5.809-5.202-6.966-7.141-1.06-1.779-1.098-3.277 0-4.749 2.041-2.732 8.004-5.37 18.621-9.528C418.879.142 540.091 5.563 646.448 59.05c11.119 5.38 57.981 18.785 75.191 23.63 1.104.31 1.75-1.15.777-1.757-73.723-46.02-153.893-72.035-241.105-78.386-96.723-6.764-190.909 9.326-282.864 38.342M3.694 122.081c-.78.784.107 2.007 1.105 1.531 44.849-21.374 83.004-37.963 139.123-35.89 63.832 2.357 108.133 61.791 173.393 59.141 1.486-.06 2.032-.259 2.085-.503.1-.86-2.085-1.266-2.085-1.266-68.843-10.661-112.233-73.136-153.147-81.68C109.558 52.009 42.632 82.983 3.694 122.08"/></svg>